<?xml version="1.0" encoding="UTF-8" standalone="no"?>
<svg width="40px" height="41px" viewBox="0 0 40 41" version="1.1" xmlns="http://www.w3.org/2000/svg" xmlns:xlink="http://www.w3.org/1999/xlink">
    <!-- Generator: Sketch 39.1 (31720) - http://www.bohemiancoding.com/sketch -->
    <title>Page 1</title>
    <desc>Created with Sketch.</desc>
    <defs></defs>
    <g id="Page-1" stroke="none" stroke-width="1" fill="none" fill-rule="evenodd">
        <g id="登录" transform="translate(-633.000000, -199.000000)" fill="#FFFFFF">
            <path d="M657.90693,214.744227 L672.775295,214.744227 L672.775295,199.875863 L657.90693,199.875863 L657.90693,214.744227 Z M660.384991,212.265968 L670.297036,212.265968 L670.297036,202.353924 L660.384991,202.353924 L660.384991,212.265968 Z M650.472748,202.353924 L652.950809,202.353924 L652.950809,199.875863 L650.472748,199.875863 L650.472748,202.353924 Z M633.126323,214.744227 L647.994687,214.744227 L647.994687,199.875863 L633.126323,199.875863 L633.126323,214.744227 Z M635.604384,212.265968 L645.516428,212.265968 L645.516428,202.353924 L635.604384,202.353924 L635.604384,212.265968 Z M652.950809,204.831984 L655.42887,204.831984 L655.42887,202.353924 L652.950809,202.353924 L652.950809,204.831984 Z M662.863052,209.788106 L667.818975,209.788106 L667.818975,204.832183 L662.863052,204.832183 L662.863052,209.788106 Z M650.472748,207.310045 L652.950809,207.310045 L652.950809,204.832183 L650.472748,204.832183 L650.472748,207.310045 Z M638.082444,209.788106 L643.038566,209.788106 L643.038566,204.832183 L638.082444,204.832183 L638.082444,209.788106 Z M652.950809,209.788106 L655.42887,209.788106 L655.42887,207.310045 L652.950809,207.310045 L652.950809,209.788106 Z M650.472748,212.266167 L652.950809,212.266167 L652.950809,209.788106 L650.472748,209.788106 L650.472748,212.266167 Z M652.950809,214.744227 L655.42887,214.744227 L655.42887,212.266167 L652.950809,212.266167 L652.950809,214.744227 Z M650.472748,217.222288 L652.950809,217.222288 L652.950809,214.744227 L650.472748,214.744227 L650.472748,217.222288 Z M667.819173,217.222288 L667.819173,219.700349 L665.341113,219.700349 L665.341113,222.17841 L667.819173,222.17841 L667.819173,219.700349 L670.297234,219.700349 L670.297234,217.222288 L667.819173,217.222288 Z M662.863052,217.222288 L662.863052,219.700349 L660.384991,219.700349 L660.384991,222.17841 L662.863052,222.17841 L662.863052,219.700349 L665.341113,219.700349 L665.341113,217.222288 L662.863052,217.222288 Z M657.90693,217.222288 L657.90693,219.700349 L655.42887,219.700349 L655.42887,222.17841 L652.950809,222.17841 L652.950809,224.65647 L655.42887,224.65647 L655.42887,222.17841 L657.90693,222.17841 L657.90693,219.700349 L660.384991,219.700349 L660.384991,217.222288 L657.90693,217.222288 Z M647.994687,217.222288 L647.994687,219.700349 L645.516627,219.700349 L645.516627,222.17841 L647.994687,222.17841 L647.994687,219.700349 L650.472748,219.700349 L650.472748,217.222288 L647.994687,217.222288 Z M643.038566,219.700349 L645.516428,219.700349 L645.516428,217.222288 L643.038566,217.222288 L643.038566,219.700349 Z M638.082444,217.222288 L638.082444,219.700349 L635.604384,219.700349 L635.604384,222.17841 L638.082444,222.17841 L638.082444,219.700349 L640.560505,219.700349 L640.560505,217.222288 L638.082444,217.222288 Z M633.126323,219.700349 L635.604384,219.700349 L635.604384,217.222288 L633.126323,217.222288 L633.126323,219.700349 Z M670.297234,222.17841 L672.775295,222.17841 L672.775295,219.700349 L670.297234,219.700349 L670.297234,222.17841 Z M650.472748,222.17841 L652.950809,222.17841 L652.950809,219.700349 L650.472748,219.700349 L650.472748,222.17841 Z M667.819173,222.17841 L667.819173,224.65647 L665.341113,224.65647 L665.341113,227.134531 L667.819173,227.134531 L667.819173,224.65647 L670.297234,224.65647 L670.297234,222.17841 L667.819173,222.17841 Z M657.90693,222.17841 L657.90693,224.65647 L655.42887,224.65647 L655.42887,227.134531 L652.950809,227.134531 L652.950809,229.612592 L655.42887,229.612592 L655.42887,227.134531 L657.90693,227.134531 L657.90693,224.65647 L660.384991,224.65647 L660.384991,222.17841 L657.90693,222.17841 Z M670.297234,227.134531 L672.775295,227.134531 L672.775295,224.65647 L670.297234,224.65647 L670.297234,227.134531 Z M660.384991,227.134531 L662.863052,227.134531 L662.863052,224.65647 L660.384991,224.65647 L660.384991,227.134531 Z M650.472748,227.134531 L652.950809,227.134531 L652.950809,224.65647 L650.472748,224.65647 L650.472748,227.134531 Z M633.126323,239.524835 L647.994687,239.524835 L647.994687,224.65647 L633.126323,224.65647 L633.126323,239.524835 Z M635.604384,237.046576 L645.516428,237.046576 L645.516428,227.134531 L635.604384,227.134531 L635.604384,237.046576 Z M667.819173,227.134531 L667.819173,229.612592 L665.341113,229.612592 L665.341113,232.090653 L667.819173,232.090653 L667.819173,229.612592 L670.297234,229.612592 L670.297234,227.134531 L667.819173,227.134531 Z M662.863052,229.612592 L665.341113,229.612592 L665.341113,227.134729 L662.863052,227.134729 L662.863052,229.612592 Z M657.90693,227.134531 L657.90693,229.612592 L655.42887,229.612592 L655.42887,232.090653 L652.950809,232.090653 L652.950809,234.568713 L655.42887,234.568713 L655.42887,232.090653 L657.90693,232.090653 L657.90693,229.612592 L660.384991,229.612592 L660.384991,227.134531 L657.90693,227.134531 Z M670.297234,232.090653 L672.775295,232.090653 L672.775295,229.612592 L670.297234,229.612592 L670.297234,232.090653 Z M650.472748,232.090653 L652.950809,232.090653 L652.950809,229.612592 L650.472748,229.612592 L650.472748,232.090653 Z M638.082444,234.568713 L643.038566,234.568713 L643.038566,229.612592 L638.082444,229.612592 L638.082444,234.568713 Z M662.863052,232.090653 L662.863052,234.568713 L660.384991,234.568713 L660.384991,237.046774 L662.863052,237.046774 L662.863052,234.568713 L665.341113,234.568713 L665.341113,232.090653 L662.863052,232.090653 Z M657.90693,234.568713 L660.384991,234.568713 L660.384991,232.090653 L657.90693,232.090653 L657.90693,234.568713 Z M670.297234,237.046774 L672.775295,237.046774 L672.775295,234.568713 L670.297234,234.568713 L670.297234,237.046774 Z M665.341113,237.046774 L667.818975,237.046774 L667.818975,234.568713 L665.341113,234.568713 L665.341113,237.046774 Z M650.472748,237.046774 L652.950809,237.046774 L652.950809,234.568713 L650.472748,234.568713 L650.472748,237.046774 Z M667.819173,239.524835 L670.297234,239.524835 L670.297234,237.046774 L667.819173,237.046774 L667.819173,239.524835 Z M662.863052,239.524835 L665.341113,239.524835 L665.341113,237.046774 L662.863052,237.046774 L662.863052,239.524835 Z M657.90693,239.524835 L660.384991,239.524835 L660.384991,237.046774 L657.90693,237.046774 L657.90693,239.524835 Z M652.950809,239.524835 L655.42887,239.524835 L655.42887,237.046774 L652.950809,237.046774 L652.950809,239.524835 Z" id="Page-1" transform="translate(652.950809, 219.700349) rotate(-360.000000) translate(-652.950809, -219.700349) "></path>
        </g>
    </g>
</svg>