<?xml version="1.0" encoding="UTF-8"?>
<svg width="332px" height="111px" viewBox="0 0 332 111" version="1.1" xmlns="http://www.w3.org/2000/svg" xmlns:xlink="http://www.w3.org/1999/xlink">
    <!-- Generator: Sketch 40.2 (33826) - http://www.bohemiancoding.com/sketch -->
    <title>Group 10 Copy 2</title>
    <desc>Created with Sketch.</desc>
    <defs>
        <polygon id="path-1" points="0 110.723528 317.466687 110.723528 317.466687 0 0 0"></polygon>
        <polygon id="path-3" points="81.6173332 0.363966202 0 0.363966202 0 84.5878898 288.35197 84.5878898 288.35197 0.363966202 81.6173332 0.363966202 81.6173332 84.5878991 0 84.5878991 0 0.363727926 81.6173332 0.363727926"></polygon>
        <polygon id="path-5" points="81.6173332 0.363966202 0 0.363966202 0 84.5878898 288.35197 84.5878898 288.35197 0.363966202 81.6173332 0.363966202 81.6173332 84.5878991 0 84.5878991 0 0.363727926 81.6173332 0.363727926"></polygon>
        <polygon id="path-7" points="0 84.8196129 288.35197 84.8196129 288.35197 0.595689364 0 0.595689364"></polygon>
    </defs>
    <g id="Page-1" stroke="none" stroke-width="1" fill="none" fill-rule="evenodd">
        <g id="手机版_注册" transform="translate(-209.000000, -150.000000)">
            <g id="Group-10-Copy-2" transform="translate(209.000000, 150.000000)">
                <g id="Page-1">
                    <mask id="mask-2" fill="white">
                        <use xlink:href="#path-1"></use>
                    </mask>
                    <g id="Clip-2"></g>
                    <path d="M54.7224844,75.5107306 C43.4530369,75.5847306 34.2285716,68.3090917 33.6060488,54.7681194 C33.0265672,42.1675639 44.2288284,33.6585917 55.0090758,33.4067861 C67.4028436,33.1169528 74.8090804,47.0207306 74.8090804,47.0207306 L106.740406,35.4232861 C106.740406,35.4232861 93.6075896,1.89100833 58.0702504,1.89100833 C24.8497878,1.89100833 1.92982071,24.5822861 1.93192028,55.3405917 C1.93192028,82.686675 23.5627508,110.050231 57.2976082,108.790175 C94.3529373,107.404731 107.044844,75.3082583 107.044844,75.3082583 L74.2936357,64.6687028 C74.2936357,64.6687028 67.6086016,75.5107306 54.7224844,75.5107306" id="Fill-6" fill="#FFFFFF" mask="url(#mask-2)"></path>
                    <path d="M58.0698305,3.78222222 C42.6169877,3.78222222 28.7041803,8.98380556 18.897084,18.4301111 C9.20126504,27.7674722 3.86205592,40.87575 3.86310571,55.3406944 C3.86310571,68.302 8.9293706,81.24275 17.7633157,90.8473333 C27.3090154,101.225833 40.5562587,106.941306 55.062195,106.941306 C55.7781487,106.941306 56.4972518,106.927944 57.2237033,106.901222 C87.4785218,105.769639 101.057497,83.09275 104.397915,76.4409722 L75.0616588,66.9103889 C72.7468817,69.9598056 65.947421,77.4019444 54.7220645,77.4019444 L54.5519992,77.4019444 C41.4905679,77.4019444 32.2975961,68.3400278 31.6771729,54.8525 C31.4052784,48.9499722 33.4523602,43.5315278 37.5958636,39.1850556 C42.0312074,34.5333333 48.523081,31.6668611 54.9635151,31.5157778 C66.0419017,31.2619167 73.2686251,40.93125 75.6600365,44.6949722 L104.141767,34.3503889 C100.864337,27.6174167 87.2003287,3.78222222 58.0698305,3.78222222 M55.062195,110.723528 C39.4466355,110.723528 25.1811001,104.563028 14.8932021,93.3777222 C5.4293857,83.0886389 0.000944806963,69.2249444 -0.000104978551,55.3406944 C-0.00115476406,39.8541389 5.74852049,25.7879722 16.1886374,15.7332222 C26.7221853,5.58802778 41.5965962,0 58.0698305,0 C77.1370847,0 89.8541864,9.45761111 97.1659425,17.3910278 C105.041433,25.937 108.404946,34.3915 108.543518,34.7471111 L109.243725,36.5313333 L73.8837994,49.3734167 L73.0964603,47.8954722 C73.0282242,47.7700833 66.059748,35.0163889 55.0548465,35.2969722 C49.6316545,35.4233889 44.1612222,37.84175 40.4197866,41.7658056 C38.0357237,44.2663889 35.2527423,48.5378333 35.5351346,54.6829167 C36.0652763,66.1868333 43.5292513,73.6197222 54.5519992,73.6197222 L54.709467,73.6197222 C66.3841317,73.6197222 72.578916,63.7910833 72.6398036,63.6913889 L73.4376406,62.3984444 L109.578606,74.1397778 L108.845856,75.9918333 C108.710434,76.3330556 105.446651,84.4514722 97.4798284,92.8196389 C90.1103341,100.558806 77.1706779,109.939333 57.3717231,110.680361 C56.5948818,110.709139 55.8264388,110.723528 55.062195,110.723528" id="Fill-7" fill="#FFFFFF" mask="url(#mask-2)"></path>
                </g>
                <g id="Page-1" transform="translate(43.454236, 13.661538)">
                    <g id="Group-3" transform="translate(0.000000, 0.231723)">
                        <mask id="mask-4" fill="white">
                            <use xlink:href="#path-3"></use>
                        </mask>
                        <g id="Clip-2"></g>
                        <path d="M40.9907263,58.3445565 C32.2404633,58.4029341 25.0780487,52.6729981 24.5945558,42.0077757 C24.1446553,32.0841866 32.8427299,25.3826812 41.213277,25.1843167 C50.8363469,24.9561676 56.5872739,35.9067252 56.5872739,35.9067252 L81.3815854,26.7730202 C81.3815854,26.7730202 71.1838428,0.363727926 43.5899509,0.363727926 C17.7956608,0.363727926 -0.00119973443,18.2344089 0,42.4593082 C0.000599867214,63.9958615 16.796282,85.547307 42.9900837,84.5548886 C71.7627146,83.4635857 81.6173332,58.1855075 81.6173332,58.1855075 L56.1871624,49.8059452 C56.1871624,49.8059452 50.9965114,58.3445565 40.9907263,58.3445565" id="Fill-1" fill="#FEFEFE" mask="url(#mask-4)"></path>
                    </g>
                    <g id="Group-6" transform="translate(0.000000, 0.231723)">
                        <mask id="mask-6" fill="white">
                            <use xlink:href="#path-5"></use>
                        </mask>
                        <g id="Clip-5"></g>
                        <path d="M40.9907263,58.3445565 C32.2404633,58.4029341 25.0780487,52.6729981 24.5945558,42.0077757 C24.1446553,32.0841866 32.8427299,25.3826812 41.213277,25.1843167 C50.8363469,24.9561676 56.5872739,35.9067252 56.5872739,35.9067252 L81.3815854,26.7730202 C81.3815854,26.7730202 71.1838428,0.363727926 43.5899509,0.363727926 C17.7956608,0.363727926 -0.00119973443,18.2344089 0,42.4593082 C0.000599867214,63.9958615 16.796282,85.547307 42.9900837,84.5548886 C71.7627146,83.4635857 81.6173332,58.1855075 81.6173332,58.1855075 L56.1871624,49.8059452 C56.1871624,49.8059452 50.9965114,58.3445565 40.9907263,58.3445565" id="Fill-4" fill="#FEFEFE" mask="url(#mask-6)"></path>
                    </g>
                    <mask id="mask-8" fill="white">
                        <use xlink:href="#path-7"></use>
                    </mask>
                    <g id="Clip-8"></g>
                    <path d="M113.206941,28.2684388 L126.457407,28.2684388 L126.457407,15.1585073 L113.206941,15.1585073 L113.206941,28.2684388 Z M100.983446,15.1585073 C99.9396774,15.1585073 99.2060398,14.9488246 98.7831334,14.5276722 C98.3590273,14.1077112 98.1472741,13.3791831 98.1472741,12.3426836 C98.1472741,11.4038772 98.3590273,10.7325353 98.7831334,10.3280622 C99.2060398,9.92299343 99.9396774,9.72045905 100.983446,9.72045905 L138.14402,9.72045905 C139.251975,9.72045905 140.002409,9.92299343 140.392923,10.3280622 C140.784636,10.7325353 140.980193,11.4038772 140.980193,12.3426836 C140.980193,13.3791831 140.784636,14.1077112 140.392923,14.5276722 C140.002409,14.9488246 139.251975,15.1585073 138.14402,15.1585073 L132.570054,15.1585073 L132.570054,28.2684388 L140.833225,28.2684388 C141.909387,28.2684388 142.642425,28.4554853 143.033538,28.8271954 C143.424652,29.200097 143.620208,29.8065087 143.620208,30.6482178 C143.620208,31.5870242 143.424652,32.2911291 143.033538,32.7599366 C142.642425,33.2299355 141.909387,33.4640414 140.833225,33.4640414 L132.570054,33.4640414 L132.570054,50.5555607 C132.570054,51.6557989 132.267721,52.4010063 131.665455,52.7893958 C131.061988,53.1771896 130.352945,53.37198 129.538325,53.37198 C128.690113,53.37198 127.965474,53.161106 127.362607,52.741145 C126.759141,52.3199926 126.458007,51.5914645 126.458007,50.5555607 L126.458007,33.4640414 L113.060573,33.4640414 C112.896809,35.8599041 112.563283,37.9883022 112.058195,39.84864 C111.552507,41.7113607 110.86026,43.3935874 109.980255,44.8988945 C109.10025,46.4047972 108.031886,47.7879879 106.777564,49.0502537 C105.522042,50.3131151 104.079961,51.542618 102.450122,52.741145 C101.504131,53.4523981 100.607929,53.7758574 99.7609169,53.7115229 C98.9127047,53.6459971 98.2450525,53.2099525 97.7561607,52.4010063 C97.1694906,51.5581059 96.9901303,50.7819226 97.2180798,50.0694782 C97.4460294,49.3576294 97.9835104,48.6779478 98.8317226,48.0304335 C100.135234,47.0910313 101.268383,46.1689042 102.22997,45.2628607 C103.191558,44.3574128 104.006777,43.3447409 104.675029,42.2290147 C105.342681,41.1120972 105.872964,39.84864 106.264077,38.4416218 C106.655191,37.0334121 106.93173,35.3750129 107.095493,33.4640414 L99.0272793,33.4640414 C97.9517174,33.4640414 97.2180798,33.2299355 96.8269664,32.7599366 C96.435853,32.2911291 96.2402963,31.5870242 96.2402963,30.6482178 C96.2402963,29.8065087 96.435853,29.200097 96.8269664,28.8271954 C97.2180798,28.4554853 97.9517174,28.2684388 99.0272793,28.2684388 L107.241861,28.2684388 L107.241861,15.1585073 L100.983446,15.1585073 Z" id="Fill-7" fill="#FFFFFF" mask="url(#mask-8)"></path>
                    <path d="M191.488772,47.0109111 C191.065866,46.2347279 190.68315,45.546111 190.340626,44.9474432 C189.998702,44.349371 189.655578,43.7661911 189.313054,43.1996906 C188.971129,42.6337857 188.604011,42.0589454 188.213497,41.4757655 C187.821784,40.8931813 187.364685,40.2301791 186.844,39.4849717 C186.25733,38.7081927 185.629269,38.29538 184.961617,38.2471292 C184.292765,38.1982827 183.714493,38.43358 183.225601,38.951234 C182.899273,39.2746933 182.68752,39.6064923 182.590342,39.9460352 C182.491964,40.2861739 182.459571,40.6257168 182.491964,40.9658554 C182.524356,41.3053984 182.614337,41.6300491 182.761304,41.9368291 C182.907672,42.2448005 183.079234,42.5283486 183.27479,42.7862821 C183.665904,43.3378905 184.032423,43.8632885 184.374947,44.3642633 C184.716871,44.8664294 185.050997,45.3918274 185.377325,45.9428401 C185.702453,46.4926614 186.037179,47.0758413 186.379703,47.6905927 C186.721627,48.3053441 187.104343,48.9850257 187.528449,49.7296374 C188.017341,50.6684438 188.497834,51.2516237 188.971129,51.4779857 C189.443225,51.7043476 190.05449,51.6400132 190.804324,51.2837909 C191.651936,50.8954015 192.107835,50.3283052 192.173221,49.5848849 C192.238606,48.8390818 192.010057,47.9818848 191.488772,47.0109111 L191.488772,47.0109111 Z M185.230357,31.8130884 C185.230357,32.4290312 184.985612,32.7364069 184.49732,32.7364069 L173.495155,32.7364069 C173.038656,32.7364069 172.810707,32.4290312 172.810707,31.8130884 L172.810707,29.433905 L185.230357,29.433905 L185.230357,31.8130884 Z M185.230357,24.8697331 L172.810707,24.8697331 L172.810707,22.5393963 C172.810707,22.1831741 172.867094,21.9645561 172.982269,21.8835423 C173.096243,21.8031243 173.267206,21.7620217 173.495155,21.7620217 L184.49732,21.7620217 C184.985612,21.7620217 185.230357,22.0217423 185.230357,22.5393963 L185.230357,24.8697331 Z M172.859896,42.1554471 C173.282802,41.120139 173.446566,40.3028532 173.348788,39.7035897 C173.251009,39.1049219 172.762117,38.6438583 171.881512,38.3192076 C171.099885,37.9641767 170.455628,37.9480931 169.95054,38.2715524 C169.444852,38.5950118 169.012947,39.177596 168.654827,40.0187094 C168.328499,40.8931813 168.026766,41.6538767 167.750227,42.301391 C167.473088,42.949501 167.187551,43.5481688 166.894816,44.0979901 C166.601481,44.6490028 166.266155,45.222056 165.892438,45.8213195 C165.516921,46.4199873 165.085017,47.1080085 164.596125,47.8853831 C164.009455,48.7908309 163.740714,49.5598659 163.789904,50.1918923 C163.838493,50.8227274 164.12343,51.364209 164.645314,51.8175286 C165.361556,52.3679456 166.030408,52.537717 166.65007,52.3274387 C167.268533,52.1165647 167.839607,51.6400132 168.361492,50.8954015 C169.27389,49.438941 170.113104,47.9818848 170.879734,46.52602 C171.645165,45.0689638 172.305618,43.6119076 172.859896,42.1554471 L172.859896,42.1554471 Z M172.077669,17.0525016 C170.415437,17.0525016 169.266091,17.4337428 168.630232,18.1938424 C167.994973,18.9545377 167.676443,20.1762966 167.676443,21.8597148 L167.676443,32.6387138 C167.676443,35.8113554 169.143718,37.3970805 172.077669,37.3970805 L176.526884,37.3970805 L176.526884,46.6225216 C176.526884,47.1080085 176.420708,47.4243195 176.208954,47.5696677 C175.996601,47.7156116 175.353544,47.6256625 174.277982,47.3022032 C173.136435,46.9787439 172.346409,46.938237 171.906107,47.1806826 C171.466404,47.4243195 171.115482,47.9497176 170.85514,48.7586637 C170.593597,49.6974701 170.634988,50.4659094 170.976913,51.0651729 C171.320037,51.6638407 172.077669,52.0611655 173.251009,52.2547646 C174.847856,52.5460567 176.160365,52.6997445 177.187338,52.7158282 C178.213711,52.7325075 179.036728,52.5299731 179.656391,52.1100121 C180.275454,51.688264 180.707959,51.0330057 180.952104,50.1430458 C181.19685,49.2524902 181.318623,48.0789821 181.318623,46.6225216 L181.318623,37.3970805 L185.768438,37.3970805 C187.43067,37.3970805 188.604011,37.0497936 189.289059,36.3534327 C189.973508,35.6576675 190.316032,34.4192293 190.316032,32.6387138 L190.316032,21.8597148 C190.316032,20.1762966 190.004701,18.9545377 189.386837,18.1938424 C188.767175,17.4337428 187.642424,17.0525016 186.012584,17.0525016 L180.780542,17.0525016 C180.910714,16.8261396 181.000694,16.6724518 181.049883,16.591438 C181.098472,16.51102 181.139263,16.4538338 181.172256,16.4216666 C181.69354,15.2243309 181.709737,14.3010124 181.220845,13.6540938 L189.82714,13.6540938 C190.836716,13.6540938 191.521165,13.4593033 191.881085,13.0709139 C192.238606,12.6825244 192.417367,12.0510937 192.417367,11.1778131 C192.417367,10.3033411 192.254203,9.64808279 191.929075,9.2108468 C191.602147,8.77361081 190.902102,8.55499281 189.82714,8.55499281 L164.351979,8.55499281 C162.689747,8.55499281 161.482814,8.96065727 160.73358,9.76960342 C159.983146,10.5791453 159.609429,11.8896619 159.609429,13.7029403 L159.609429,26.2290963 C159.609429,29.1426129 159.584834,31.6599962 159.535645,33.7800546 C159.486456,35.9001131 159.38028,37.7610467 159.217716,39.3640467 C159.054552,40.9658554 158.818804,42.3824047 158.508673,43.6119076 C158.199141,44.8420061 157.79963,46.0077702 157.310738,47.1080085 C157.049795,47.6905927 156.838042,48.2005028 156.675478,48.6377388 C156.511715,49.0749748 156.438531,49.4711082 156.455327,49.8273304 C156.471524,50.1835527 156.569302,50.514756 156.748662,50.8227274 C156.927423,51.1301031 157.229156,51.4291391 157.653262,51.7210269 C158.402496,52.1737508 159.103141,52.3435223 159.755796,52.230937 C160.407252,52.1165647 161.010119,51.4940693 161.564996,50.3616638 C162.216452,48.9689421 162.754533,47.4719747 163.178639,45.870166 C163.602145,44.2677616 163.936271,42.49499 164.181017,40.5530427 C164.425163,38.6116911 164.596125,36.483293 164.694503,34.1684441 C164.792282,31.8541909 164.840871,29.2879611 164.840871,26.4727332 L164.840871,14.867513 C164.840871,14.3498589 164.914055,14.01806 165.061022,13.8727118 C165.20799,13.7267679 165.395148,13.6540938 165.623098,13.6540938 L177.162743,13.6540938 C177.096758,13.783954 177.031972,13.904879 176.967187,14.01806 C176.901201,14.1312409 176.836416,14.2688452 176.77163,14.430277 C176.314531,15.3696791 175.809443,16.2441511 175.255765,17.0525016 L172.077669,17.0525016 Z M157.702451,17.1501946 C157.049795,17.7649461 156.373745,18.0407502 155.6731,17.9752244 C154.971855,17.91089 154.148838,17.4575704 153.203447,16.6152656 C152.551391,16.0654443 151.826152,15.4667765 151.027729,14.8186665 C150.228705,14.1717478 149.585648,13.6540938 149.096756,13.2657043 C148.314529,12.61819 147.849632,11.9784196 147.702665,11.3475845 C147.556297,10.7161538 147.792645,9.98047746 148.411708,9.1381727 C148.965985,8.42632391 149.625839,8.02959479 150.392469,7.94858104 C151.1579,7.86816297 151.964721,8.15111542 152.812933,8.79862976 C153.431396,9.25194936 153.961679,9.65642244 154.401982,10.012049 C154.841684,10.3688669 155.2244,10.6917306 155.550727,10.9830227 C155.876455,11.2749104 156.178188,11.5411836 156.455327,11.7848205 C156.731866,12.0272661 157.018003,12.2780513 157.310738,12.5371762 C158.027579,13.249025 158.500274,13.9775531 158.728824,14.7221648 C158.956773,15.4667765 158.647242,16.259639 157.79963,17.1013481 L157.702451,17.1501946 Z M156.821846,37.2999831 C156.16979,39.8572775 155.476944,42.2698195 154.743906,44.5346304 C154.010868,46.8000371 153.073276,49.0499558 151.932328,51.2837909 C151.475829,52.2547646 150.823774,52.8701117 149.976761,53.1292366 C149.128549,53.3883614 148.330126,53.3061563 147.580892,52.8861953 C146.798065,52.4328757 146.325369,51.8425475 146.162805,51.1140195 C145.999642,50.3854914 146.260584,49.406178 146.945032,48.1766752 C147.889823,46.4283269 148.697244,44.5274822 149.365496,42.4711625 C150.033149,40.4160342 150.676806,38.2066223 151.296469,35.8435226 C151.557411,34.7105214 151.948525,33.9337425 152.470409,33.5125901 C152.991094,33.0926291 153.757724,32.9788524 154.7685,33.1724515 C155.746284,33.3350747 156.422334,33.7234641 156.797851,34.3382156 C157.171569,34.952967 157.180567,35.94062 156.821846,37.2999831 L156.821846,37.2999831 Z M155.648506,28.6082796 C154.99585,29.2242224 154.311402,29.5000266 153.59456,29.433905 C152.877719,29.3701663 152.062499,28.8840838 151.150101,27.9774445 C150.725995,27.7183197 150.139325,27.282275 149.389491,26.6663322 C148.639657,26.0515808 147.874227,25.452913 147.092,24.8697331 C146.341566,24.1900516 145.885667,23.5347933 145.722503,22.9033625 C145.559339,22.2719318 145.804085,21.5195761 146.456141,20.6451042 C147.564095,19.2541695 149.030771,19.205323 150.856766,20.5003516 C151.508822,21.0186014 152.258056,21.5922502 153.105669,22.223681 C153.953281,22.8551117 154.670722,23.4460355 155.257392,23.9958568 C156.007226,24.7083013 156.479922,25.4368294 156.675478,26.1808454 C156.871035,26.9260528 156.544707,27.7183197 155.697095,28.5606244 L155.648506,28.6082796 Z" id="Fill-9" fill="#FFFFFF" mask="url(#mask-8)"></path>
                    <path d="M220.72834,21.1798545 L220.72834,35.066565 L231.143234,35.066565 C231.79469,35.066565 232.186403,34.9694676 232.316574,34.7752729 C232.446746,34.5810781 232.512131,34.1122706 232.512131,33.3676589 L232.512131,22.6369107 C232.512131,22.0215636 232.406555,21.6248344 232.194801,21.447319 C231.982448,21.2692079 231.501355,21.1798545 230.752721,21.1798545 L220.72834,21.1798545 Z M204.446144,21.1798545 C203.957252,21.1798545 203.647721,21.2608682 203.517549,21.4223001 C203.386778,21.5843276 203.321393,21.9893963 203.321393,22.6369107 L203.321393,33.3676589 C203.321393,34.1438421 203.395176,34.621585 203.541544,34.7996961 C203.688512,34.9778072 204.038834,35.066565 204.593111,35.066565 L214.76326,35.066565 L214.76326,21.1798545 L204.446144,21.1798545 Z M214.76326,9.28334219 C214.76326,8.21527116 214.99061,7.48674307 215.447709,7.09894929 C215.904208,6.71055983 216.670238,6.51576941 217.7458,6.51576941 C218.755976,6.51576941 219.50641,6.71055983 219.994702,7.09894929 C220.484194,7.48674307 220.72834,8.21527116 220.72834,9.28334219 L220.72834,15.4022633 L232.756877,15.4022633 C233.96261,15.4022633 234.932595,15.4582581 235.666233,15.5720348 C236.399871,15.6858115 236.969744,15.936001 237.377654,16.3243905 C237.784964,16.7127799 238.062103,17.2637926 238.20907,17.9750457 C238.355438,18.6874902 238.429221,19.6257009 238.429221,20.791465 L238.429221,35.503801 C238.429221,36.5712763 238.363236,37.4540879 238.233065,38.1492574 C238.102294,38.846214 237.833553,39.3876956 237.426243,39.7760851 C237.018334,40.1650702 236.44906,40.4402787 235.715422,40.6023062 C234.981784,40.7643337 234.011799,40.8447518 232.806066,40.8447518 L220.72834,40.8447518 L220.72834,50.8469719 C220.72834,51.6880853 220.515987,52.3600229 220.09308,52.862189 C219.668974,53.3631638 218.886147,53.6145447 217.7458,53.6145447 C216.475281,53.6145447 215.660062,53.4036707 215.301341,52.983114 C214.94202,52.5625573 214.76326,51.8340292 214.76326,50.7981254 L214.76326,40.8447518 L202.979469,40.8447518 C201.806128,40.8447518 200.852339,40.7643337 200.119302,40.6023062 C199.385664,40.4402787 198.81459,40.1573263 198.40788,39.7522575 C197.999371,39.3477844 197.73123,38.7973674 197.601059,38.1016023 C197.470288,37.4058371 197.404903,36.5397048 197.404903,35.503801 L197.404903,20.7426185 C197.404903,19.6429759 197.470288,18.7440807 197.601059,18.0477198 C197.73123,17.3525503 197.999371,16.810473 198.40788,16.4214878 C198.81459,16.0330984 199.385664,15.7656339 200.119302,15.61969 C200.852339,15.4749374 201.806128,15.4022633 202.979469,15.4022633 L214.76326,15.4022633 L214.76326,9.28334219 Z" id="Fill-10" fill="#FFFFFF" mask="url(#mask-8)"></path>
                    <path d="M271.482565,35.0667437 C270.829909,34.322132 270.520378,33.658534 270.55397,33.0759498 C270.585763,32.4927699 270.814313,31.9757116 271.238419,31.5217963 L268.451436,31.5217963 L268.451436,38.7081927 L274.612072,38.7081927 C274.513694,38.6116911 274.416515,38.513998 274.318737,38.4169007 C274.220359,38.3192076 274.12258,38.2066223 274.025402,38.076762 C273.732067,37.7211355 273.495119,37.438183 273.315759,37.227309 C273.136399,37.0170306 272.973835,36.8144963 272.827467,36.6203015 C272.6805,36.4261068 272.509537,36.2164241 272.313981,35.9888708 C272.117824,35.7625088 271.841285,35.4551331 271.482565,35.0667437 L271.482565,35.0667437 Z M255.395926,22.1510069 C254.254378,22.1510069 253.488948,21.9728957 253.097834,21.6172692 C252.706721,21.261047 252.510564,20.597449 252.510564,19.6258796 C252.510564,18.5905715 252.706721,17.91089 253.097834,17.5862393 C253.488948,17.2633756 254.254378,17.1013481 255.395926,17.1013481 L277.790168,17.1013481 C278.962909,17.1013481 279.745736,17.2711196 280.136849,17.6112582 C280.527962,17.9508012 280.723519,18.6394181 280.723519,19.6741305 C280.723519,20.6451042 280.527962,21.3009581 280.136849,21.6410968 C279.745736,21.9806397 278.962909,22.1510069 277.790168,22.1510069 L268.451436,22.1510069 L268.451436,26.6663322 L276.078747,26.6663322 C277.186702,26.6663322 277.952732,26.8366994 278.376839,27.1762423 C278.799745,27.516381 279.012098,28.1555557 279.012098,29.0943621 C279.012098,30.0337642 278.799745,30.6723432 278.376839,31.0124818 C277.952732,31.3520248 277.186702,31.5217963 276.078747,31.5217963 L275.100964,31.5217963 C275.75242,32.2342407 276.298899,32.8740111 276.738601,33.439916 C277.178904,34.0070123 277.708587,34.6950335 278.327649,35.5039797 C278.784148,36.0865639 279.0043,36.6608084 278.988103,37.227309 C278.970707,37.7944053 278.735559,38.2876361 278.27846,38.7081927 L278.572995,38.7081927 C279.712743,38.7081927 280.479373,38.9101314 280.870487,39.3152002 C281.2616,39.7196733 281.457157,40.3922066 281.457157,41.3304173 C281.457157,42.2698195 281.2616,42.9006545 280.870487,43.2235181 C280.479373,43.5481688 279.712743,43.7096007 278.572995,43.7096007 L254.760066,43.7096007 C253.619119,43.7096007 252.853089,43.5481688 252.462575,43.2235181 C252.071462,42.9006545 251.875305,42.2698195 251.875305,41.3304173 C251.875305,40.3922066 252.071462,39.7196733 252.462575,39.3152002 C252.853089,38.9101314 253.619119,38.7081927 254.760066,38.7081927 L263.023237,38.7081927 L263.023237,31.5217963 L256.764823,31.5217963 C255.591482,31.5217963 254.809255,31.3520248 254.418142,31.0124818 C254.027029,30.6723432 253.831472,30.0337642 253.831472,29.0943621 C253.831472,28.1555557 254.027029,27.516381 254.418142,27.1762423 C254.809255,26.8366994 255.591482,26.6663322 256.764823,26.6663322 L263.023237,26.6663322 L263.023237,22.1510069 L255.395926,22.1510069 Z M251.532781,13.7505954 C251.109275,13.7505954 250.799143,13.8476928 250.604186,14.0424832 C250.40803,14.236678 250.310851,14.6089838 250.310851,15.1588051 L250.310851,44.6317278 C250.310851,45.9589237 250.880125,46.6225216 252.022272,46.6225216 L281.701903,46.6225216 C282.125409,46.6225216 282.451137,46.4450062 282.679686,46.088784 C282.907636,45.731966 283.02221,45.2464792 283.02221,44.6317278 L283.02221,15.1099586 C283.02221,14.6572347 282.891439,14.3176917 282.630497,14.0907341 C282.369555,13.8649678 281.897459,13.7505954 281.213011,13.7505954 L251.532781,13.7505954 Z M288.35203,46.5742708 C288.35203,48.4191208 287.975914,49.7624003 287.227279,50.6041094 C286.476246,51.4452227 285.124745,51.8663751 283.167978,51.8663751 L250.017516,51.8663751 C248.061349,51.8663751 246.732643,51.4452227 246.031998,50.6041094 C245.331354,49.7624003 244.981031,48.4191208 244.981031,46.5742708 L244.981031,13.6540938 C244.981031,11.8086481 245.306159,10.4814522 245.958815,9.67191037 C246.61087,8.8635599 247.914982,8.45849113 249.870549,8.45849113 L283.167978,8.45849113 C285.124745,8.45849113 286.476246,8.8635599 287.227279,9.67191037 C287.975914,10.4814522 288.35203,11.8086481 288.35203,13.6540938 L288.35203,46.5742708 Z" id="Fill-11" fill="#FFFFFF" mask="url(#mask-8)"></path>
                    <path d="M100.01724,71.5017858 C100.01724,73.361528 100.564319,74.7542497 101.659677,75.6793553 C102.753834,76.6050566 104.131729,77.0679072 105.792762,77.0679072 C107.440597,77.0679072 108.811893,76.6026738 109.907251,75.6728027 C111.002009,74.7429316 111.549088,73.3251909 111.549088,71.4201764 C111.549088,69.6241729 110.998409,68.2630227 109.897653,67.3379171 C108.796897,66.4128116 107.4286,65.9493652 105.792762,65.9493652 C104.131729,65.9493652 102.753834,66.4104288 101.659677,67.3307689 C100.564319,68.2517046 100.01724,69.6420436 100.01724,71.5017858 M96.6039958,71.5017858 C96.6039958,68.8122483 97.6123726,66.8202631 99.629726,65.5258301 C101.314753,64.4500151 103.368698,63.9121076 105.792762,63.9121076 C108.486166,63.9121076 110.688278,64.5667702 112.398499,65.8743084 C114.107521,67.1830379 114.962932,68.9903594 114.962932,71.296273 C114.962932,73.1655462 114.584416,74.6357075 113.828583,75.706757 C113.071551,76.7784022 111.970794,77.6099845 110.525714,78.2026955 C109.080034,78.7954064 107.501783,79.091464 105.792762,79.091464 C103.048969,79.091464 100.83186,78.4397798 99.1408342,77.1358158 C97.4492087,75.8324475 96.6039958,73.9542389 96.6039958,71.5017858" id="Fill-12" fill="#FFFFFF" mask="url(#mask-8)"></path>
                    <path d="M117.527244,74.4283481 L120.812117,74.0453198 C120.996276,75.021059 121.509763,75.7686491 122.351976,76.2880903 C123.19479,76.8075314 124.372929,77.0678477 125.885794,77.0678477 C127.411256,77.0678477 128.542606,76.8373159 129.281042,76.376848 C130.018879,75.9163801 130.387797,75.3766855 130.387797,74.7565729 C130.387797,74.2001991 130.062069,73.7629631 129.410014,73.4436736 C128.954715,73.2250556 127.823365,72.9468686 126.014765,72.6091128 C123.579305,72.1534104 121.891278,71.7596597 120.950087,71.4266694 C120.008895,71.093679 119.295653,70.6332111 118.80976,70.0452657 C118.323268,69.4573203 118.080922,68.8080189 118.080922,68.0967658 C118.080922,67.4492515 118.280677,66.849988 118.680789,66.2983796 C119.0803,65.747367 119.62438,65.2886862 120.313627,64.9241243 C120.830113,64.6417675 121.534357,64.4023004 122.42636,64.2057229 C123.317762,64.0103368 124.273951,63.912048 125.295525,63.912048 C126.832984,63.912048 128.183285,64.0758626 129.345828,64.4046831 C130.507771,64.732908 131.366181,65.1772922 131.919258,65.7378359 C132.472936,66.2983796 132.854451,67.0483525 133.063805,67.987159 L129.816124,68.3153838 C129.668557,67.5683894 129.240851,66.9846138 128.533608,66.5652485 C127.826364,66.1458832 126.826986,65.9356048 125.534872,65.9356048 C124.010009,65.9356048 122.92125,66.123247 122.269195,66.4967442 C121.617139,66.8708371 121.291411,67.3080731 121.291411,67.8096435 C121.291411,68.128933 121.426981,68.4160553 121.697521,68.6710104 C121.967461,68.9354964 122.392167,69.1541144 122.970439,69.3274601 C123.302766,69.4186005 124.280549,69.6282832 125.90439,69.956508 C128.25347,70.4217414 129.892907,70.8023869 130.821501,71.0984445 C131.750096,71.3950978 132.478934,71.8257812 133.008017,72.3904948 C133.5371,72.9563997 133.801642,73.6581217 133.801642,74.4962567 C133.801642,75.3171166 133.478913,76.0897257 132.832856,76.814084 C132.187399,77.5390379 131.255205,78.1001773 130.037475,78.4969064 C128.819744,78.8930399 127.44185,79.0914044 125.90439,79.0914044 C123.357954,79.0914044 121.417383,78.6994408 120.082679,77.9155136 C118.747974,77.1315864 117.896163,75.9688008 117.527244,74.4283481" id="Fill-13" fill="#FFFFFF" mask="url(#mask-8)"></path>
                    <path d="M150.537217,73.4437927 L153.802894,73.7583167 C153.445973,75.4268426 152.532375,76.7325937 151.062701,77.6761656 C149.593026,78.6197376 147.787426,79.0915236 145.647699,79.0915236 C142.965693,79.0915236 140.81037,78.4416265 139.179931,77.142428 C137.550092,75.8438251 136.735472,73.9817002 136.735472,71.5566488 C136.735472,69.9881987 137.085795,68.6163261 137.787039,67.4404353 C138.488284,66.2639488 139.555448,65.3823285 140.988531,64.7937874 C142.421614,64.205842 143.980668,63.9121672 145.665695,63.9121672 C147.794024,63.9121672 149.534239,64.311279 150.88754,65.1089071 C152.24084,65.9065352 153.107648,67.0395363 153.489764,68.5073149 L150.260678,68.8760466 C149.952946,67.9009032 149.408267,67.1670139 148.62724,66.6743788 C147.846213,66.1823393 146.902622,65.9357239 145.795267,65.9357239 C144.122237,65.9357239 142.762338,66.3801082 141.717369,67.2694724 C140.671801,68.158241 140.148717,69.5646636 140.148717,71.4881445 C140.148717,73.4396229 140.653205,74.8567679 141.661582,75.7413666 C142.670558,76.6253696 143.986667,77.0679668 145.610508,77.0679668 C146.914619,77.0679668 148.002778,76.7713135 148.876785,76.1786026 C149.749591,75.5864873 150.303269,74.6744869 150.537217,73.4437927" id="Fill-14" fill="#FFFFFF" mask="url(#mask-8)"></path>
                    <path d="M156.644885,78.7632987 L156.644885,58.7153732 L159.96575,58.7153732 L159.96575,65.9089179 C161.515807,64.5781479 163.471974,63.9121672 165.833651,63.9121672 C167.28473,63.9121672 168.546251,64.1242326 169.616414,64.5477677 C170.686577,64.9718986 171.452007,65.5580569 171.913305,66.3050514 C172.374603,67.0532372 172.604952,68.1373918 172.604952,69.559898 L172.604952,78.7632987 L169.284087,78.7632987 L169.284087,69.559898 C169.284087,68.3292038 168.924167,67.433287 168.204926,66.8727433 C167.485086,66.3121996 166.467111,66.0316299 165.151002,66.0316299 C164.16662,66.0316299 163.241025,66.2210592 162.374217,66.5993219 C161.506809,66.9775846 160.888946,67.4904732 160.519427,68.1373918 C160.150509,68.7849062 159.96575,69.6784402 159.96575,70.817994 L159.96575,78.7632987 L156.644885,78.7632987 Z" id="Fill-15" fill="#FFFFFF" mask="url(#mask-8)"></path>
                    <path d="M177.679469,78.7632392 L181.000934,78.7632392 L181.000934,64.2403324 L177.679469,64.2403324 L177.679469,78.7632392 Z M177.679469,61.5460295 L181.000934,61.5460295 L181.000934,58.7153136 L177.679469,58.7153136 L177.679469,61.5460295 Z" id="Fill-16" fill="#FFFFFF" mask="url(#mask-8)"></path>
                    <path d="M186.056795,78.7632987 L186.056795,64.240392 L189.045933,64.240392 L189.045933,66.3050514 C190.485014,64.7103909 192.563554,63.9121672 195.282752,63.9121672 C196.463891,63.9121672 197.548451,64.0694292 198.538831,64.3839532 C199.528612,64.6984771 200.270048,65.1112899 200.762539,65.6217957 C201.25443,66.1323014 201.598754,66.7387132 201.795511,67.4404353 C201.918483,67.8967333 201.98027,68.6937657 201.98027,69.8339151 L201.98027,78.7632987 L198.658805,78.7632987 L198.658805,69.9292254 C198.658805,68.9266802 198.529833,68.1767073 198.271291,67.6793067 C198.012748,67.1830975 197.555049,66.7863684 196.896995,66.4903107 C196.238341,66.1936574 195.466911,66.0453308 194.581507,66.0453308 C193.166421,66.0453308 191.945691,66.3783211 190.918718,67.0437062 C189.891146,67.7090912 189.378259,68.9719526 189.378259,70.8316948 L189.378259,78.7632987 L186.056795,78.7632987 Z" id="Fill-17" fill="#FFFFFF" mask="url(#mask-8)"></path>
                    <path d="M219.583253,71.4743245 C218.37752,71.8394821 216.56892,72.1492406 214.158654,72.4041956 C212.792756,72.5501395 211.82697,72.7145498 211.261295,72.896235 C210.69562,73.0791117 210.258917,73.3459805 209.951185,73.6968415 C209.644053,74.0477026 209.489887,74.4372834 209.489887,74.8661798 C209.489887,75.5220338 209.824613,76.0694723 210.495865,76.507304 C211.165916,76.94454 212.147299,77.163158 213.438813,77.163158 C214.71773,77.163158 215.855678,76.9558581 216.852058,76.5406626 C217.848437,76.1260628 218.580275,75.5589665 219.047572,74.8381824 C219.404493,74.2824042 219.583253,73.4621399 219.583253,72.3767939 L219.583253,71.4743245 Z M219.859792,76.9719417 C218.630064,77.7469335 217.445926,78.2937764 216.308578,78.6130659 C215.17003,78.9317597 213.9487,79.0914044 212.645789,79.0914044 C210.492865,79.0914044 208.838432,78.7018236 207.681888,77.9220662 C206.525344,77.1429045 205.947072,76.1469119 205.947072,74.9340883 C205.947072,74.2228352 206.165423,73.5735338 206.602726,72.9855884 C207.03883,72.397643 207.611103,71.9258571 208.318347,71.5702305 C209.02559,71.214604 209.822814,70.9459481 210.707618,70.7630714 C211.359673,70.6355939 212.344056,70.5128819 213.660164,70.3943397 C216.341571,70.1572553 218.315734,69.8743029 219.583253,69.5466737 C219.594651,69.2095136 219.601849,68.9944697 219.601849,68.9033292 C219.601849,67.900784 219.287519,67.1942964 218.660657,66.7838665 C217.811845,66.2280883 216.550324,65.9493057 214.878495,65.9493057 C213.31584,65.9493057 212.162896,66.1530314 211.41846,66.5581002 C210.674025,66.9637647 210.123947,67.6815703 209.767026,68.7121129 L206.519945,68.3838881 C206.81448,67.3539412 207.300372,66.5217631 207.977022,65.8879497 C208.653073,65.2547319 209.631456,64.7668623 210.910973,64.4249366 C212.18989,64.0830109 213.672761,63.912048 215.357788,63.912048 C217.030218,63.912048 218.390117,64.0579919 219.435686,64.349284 C220.480654,64.6417675 221.250284,65.0087122 221.741575,65.4507137 C222.233466,65.8927152 222.57779,66.4514718 222.775147,67.1257922 C222.886122,67.5451575 222.94131,68.301683 222.94131,69.3959643 L222.94131,72.677617 C222.94131,74.9662556 223.012094,76.4137807 223.153063,77.0195968 C223.294632,77.6260086 223.57477,78.2074014 223.992877,78.7631796 L220.524445,78.7631796 C220.180121,78.2526738 219.95757,77.6557931 219.859792,76.9719417 L219.859792,76.9719417 Z" id="Fill-18" fill="#FFFFFF" mask="url(#mask-8)"></path>
                    <polygon id="Fill-19" fill="#FFFFFF" mask="url(#mask-8)" points="229.030502 78.7632392 232.813265 78.7632392 232.813265 75.959925 229.030502 75.959925"></polygon>
                    <path d="M238.588366,78.7632987 L238.588366,64.240392 L241.577504,64.240392 L241.577504,66.3050514 C243.016586,64.7103909 245.095126,63.9121672 247.814324,63.9121672 C248.995462,63.9121672 250.080022,64.0694292 251.070403,64.3839532 C252.060184,64.6984771 252.80162,65.1112899 253.294111,65.6217957 C253.786002,66.1323014 254.130326,66.7387132 254.327082,67.4404353 C254.450055,67.8967333 254.511841,68.6937657 254.511841,69.8339151 L254.511841,78.7632987 L251.190377,78.7632987 L251.190377,69.9292254 C251.190377,68.9266802 251.061405,68.1767073 250.802862,67.6793067 C250.54432,67.1830975 250.086621,66.7863684 249.428567,66.4903107 C248.769912,66.1936574 247.998483,66.0453308 247.113079,66.0453308 C245.697992,66.0453308 244.477263,66.3783211 243.45029,67.0437062 C242.422717,67.7090912 241.909831,68.9719526 241.909831,70.8316948 L241.909831,78.7632987 L238.588366,78.7632987 Z" id="Fill-20" fill="#FFFFFF" mask="url(#mask-8)"></path>
                    <path d="M262.114378,70.1070387 L273.055956,70.1070387 C272.908389,68.8852798 272.489682,67.9691096 271.800434,67.358528 C270.742868,66.4101905 269.371572,65.9360218 267.685945,65.9360218 C266.161083,65.9360218 264.878567,66.3142845 263.838997,67.0714057 C262.800027,67.8279312 262.224754,68.8400074 262.114378,70.1070387 M273.018765,74.0862437 L276.450605,74.4007677 C275.908925,75.8870126 274.907147,77.0402672 273.443471,77.8605315 C271.979195,78.6813914 270.110009,79.0918214 267.834112,79.0918214 C264.967347,79.0918214 262.69565,78.4371588 261.016022,77.129025 C259.336993,75.8208911 258.497179,73.9861679 258.497179,71.6248552 C258.497179,69.1819331 259.345991,67.2852582 261.044215,65.9360218 C262.74124,64.5867854 264.942752,63.9118693 267.649953,63.9118693 C270.268973,63.9118693 272.409899,64.5736802 274.070332,65.8949192 C275.731364,67.2167539 276.56158,69.0770918 276.56158,71.4741458 C276.56158,71.6200897 276.554982,71.8393034 276.542985,72.1311912 L261.929619,72.1311912 C262.052592,73.7264473 262.661457,74.9476105 263.756215,75.7952765 C264.850973,76.6435381 266.21627,77.0676689 267.852708,77.0676689 C269.070439,77.0676689 270.110009,76.8305846 270.970218,76.3564158 C271.831627,75.8828428 272.514276,75.1257216 273.018765,74.0862437" id="Fill-21" fill="#FFFFFF" mask="url(#mask-8)"></path>
                    <path d="M287.872077,76.5615117 L288.35197,78.7357779 C287.416777,78.8817218 286.580563,78.9549916 285.843326,78.9549916 C284.637593,78.9549916 283.7024,78.8132175 283.037747,78.5308607 C282.373694,78.248504 281.906397,77.8767938 281.635857,77.4163259 C281.364717,76.9558581 281.230347,75.9872671 281.230347,74.5099575 L281.230347,66.1548185 L278.794286,66.1548185 L278.794286,64.2402729 L281.230347,64.2402729 L281.230347,60.6435005 L284.533216,59.1667866 L284.533216,64.2402729 L287.872077,64.2402729 L287.872077,66.1548185 L284.533216,66.1548185 L284.533216,74.6469661 C284.533216,75.3492838 284.590803,75.8002207 284.707777,76.000968 C284.824751,76.2017153 285.014909,76.3607644 285.279451,76.4799022 C285.544592,76.5984444 285.922508,76.6574177 286.414999,76.6574177 C286.783918,76.6574177 287.26921,76.6258461 287.872077,76.5615117" id="Fill-22" fill="#FFFFFF" mask="url(#mask-8)"></path>
                </g>
            </g>
        </g>
    </g>
</svg>