<?xml version="1.0" encoding="UTF-8" standalone="no"?>
<svg width="42px" height="41px" viewBox="0 0 42 41" version="1.1" xmlns="http://www.w3.org/2000/svg" xmlns:xlink="http://www.w3.org/1999/xlink">
    <!-- Generator: Sketch 39.1 (31720) - http://www.bohemiancoding.com/sketch -->
    <title>Shape</title>
    <desc>Created with Sketch.</desc>
    <defs></defs>
    <g id="Page-1" stroke="none" stroke-width="1" fill="none" fill-rule="evenodd">
        <g id="二维码登录" transform="translate(-631.000000, -197.000000)" fill="#FFFFFF">
            <path d="M669.589607,198.230204 L634.820991,198.230204 C633.147822,198.230204 631.786605,199.588 631.786605,201.256965 L631.786605,226.30455 C631.786605,227.973515 633.147822,229.331268 634.820991,229.331268 L649.170913,229.331268 L649.170913,234.838222 L644.47893,234.838222 C643.869891,234.838222 643.376159,235.330715 643.376159,235.938223 C643.376159,236.545731 643.869891,237.038224 644.47893,237.038224 L659.931668,237.038223 C660.540751,237.038223 661.034439,236.545731 661.034439,235.938223 C661.034439,235.330715 660.540751,234.838222 659.931668,234.838222 L655.239685,234.838222 L655.239685,229.331268 L669.589607,229.331268 C671.262776,229.331268 672.623948,227.973515 672.623948,226.30455 L672.623948,201.256921 C672.623948,199.588 671.262776,198.230204 669.589607,198.230204 L669.589607,198.230204 Z M634.820991,200.430205 L669.589607,200.430205 C670.046595,200.430205 670.418406,200.801081 670.418406,201.256965 L670.418406,221.351115 L633.992148,221.351115 L633.992148,201.256921 C633.992148,200.801081 634.364002,200.430205 634.820991,200.430205 L634.820991,200.430205 Z M653.034142,234.838222 L651.376456,234.838222 L651.376456,229.331268 L653.034142,229.331268 L653.034142,234.838222 L653.034142,234.838222 Z M669.589607,227.131266 L634.820991,227.131266 C634.364002,227.131266 633.992148,226.76039 633.992148,226.30455 L633.992148,223.551073 L670.418406,223.551073 L670.418406,226.30455 C670.418406,226.76039 670.04664,227.131266 669.589607,227.131266 L669.589607,227.131266 Z" id="Shape" transform="translate(652.205277, 217.634214) rotate(-361.000000) translate(-652.205277, -217.634214) "></path>
        </g>
    </g>
</svg>